# xmcd
#
# Track frame offsets: 
#        150
#        10061
#        24482
#        40941
#        55556
#        70398
#        83608
#        98595
#        115081
#        129194
#        141244
#
# Disc length: 2085 seconds
#
# Revision: 0
# Processed by: cddbd v1.5.2PL0 Copyright (c) Steve Scherf et al.
# Submitted via: ExactAudioCopy v0.95a4
#
DISCID=7f08230b
DTITLE=Hatebreed - The Divinity Of Purpose
DYEAR=2013
DGENRE=Hardcore
TTITLE0=Put It To The Torch
TTITLE1=Honor Never Dies
TTITLE2=Own Your World
TTITLE3=The Language
TTITLE4=Before The Fight Ends You
TTITLE5=Indivisible
TTITLE6=Dead Man Breathing
TTITLE7=The Divinity Of Purpose
TTITLE8=Nothing Scars Me
TTITLE9=Bitter Truth
TTITLE10=Boundless (Time To Murder It)
EXTD=
EXTT0=
EXTT1=
EXTT2=
EXTT3=
EXTT4=
EXTT5=
EXTT6=
EXTT7=
EXTT8=
EXTT9=
EXTT10=
PLAYORDER=
